HIERARCHY
ROOT Hips
{
	OFFSET 0.000000 0.000000 0.000000
	CHANNELS 6 Xposition Yposition Zposition Xrotation Zrotation Yrotation
	JOINT Spine
	{
		OFFSET 0.000000 0.000001 -5.265335
		CHANNELS 6 Xposition Yposition Zposition Xrotation Zrotation Yrotation
		JOINT Spine1
		{
			OFFSET 0.000000 0.000007 -11.914386
			CHANNELS 6 Xposition Yposition Zposition Xrotation Zrotation Yrotation
			JOINT Neck
			{
				OFFSET 0.000000 0.000007 -13.198612
				CHANNELS 6 Xposition Yposition Zposition Xrotation Zrotation Yrotation
				JOINT Head
				{
					OFFSET 0.000000 1.284232 -9.952774
					CHANNELS 6 Xposition Yposition Zposition Xrotation Zrotation Yrotation
					End Site
					{
						OFFSET 0.000000 0.000007 -12.842283
					}
				}
			}
			JOINT LeftShoulder
			{
				OFFSET 2.563100 -0.280098 -10.769156
				CHANNELS 6 Xposition Yposition Zposition Xrotation Zrotation Yrotation
				JOINT LeftArm
				{
					OFFSET 7.428645 0.000000 0.000000
					CHANNELS 6 Xposition Yposition Zposition Xrotation Zrotation Yrotation
					JOINT LeftForeArm
					{
						OFFSET 19.264490 0.000000 0.000000
						CHANNELS 6 Xposition Yposition Zposition Xrotation Zrotation Yrotation
						JOINT LeftHand
						{
							OFFSET 17.229633 0.000000 0.000000
							CHANNELS 6 Xposition Yposition Zposition Xrotation Zrotation Yrotation
							End Site
							{
								OFFSET 9.631715 0.000000 0.000000
							}
						}
					}
				}
			}
			JOINT RightShoulder
			{
				OFFSET -2.568340 -0.280098 -10.769156
				CHANNELS 6 Xposition Yposition Zposition Xrotation Zrotation Yrotation
				JOINT RightArm
				{
					OFFSET -7.428645 0.000000 0.000000
					CHANNELS 6 Xposition Yposition Zposition Xrotation Zrotation Yrotation
					JOINT RightForeArm
					{
						OFFSET -19.264490 0.000000 0.000000
						CHANNELS 6 Xposition Yposition Zposition Xrotation Zrotation Yrotation
						JOINT RightHand
						{
							OFFSET -17.229633 0.000000 0.000000
							CHANNELS 6 Xposition Yposition Zposition Xrotation Zrotation Yrotation
							End Site
							{
								OFFSET -9.631715 0.000000 0.000000
							}
						}
					}
				}
			}
		}
	}
	JOINT LeftUpLeg
	{
		OFFSET 6.421140 0.000000 0.000000
		CHANNELS 6 Xposition Yposition Zposition Xrotation Zrotation Yrotation
		JOINT LeftLeg
		{
			OFFSET 0.000000 -0.000015 33.420120
			CHANNELS 6 Xposition Yposition Zposition Xrotation Zrotation Yrotation
			JOINT LeftFoot
			{
				OFFSET 0.000000 -0.000014 26.847282
				CHANNELS 6 Xposition Yposition Zposition Xrotation Zrotation Yrotation
				JOINT LeftToeBase
				{
					OFFSET 0.000000 9.631709 4.173746
					CHANNELS 6 Xposition Yposition Zposition Xrotation Zrotation Yrotation
					End Site
					{
						OFFSET 0.000000 2.568455 0.000000
					}
				}
			}
		}
	}
	JOINT RightUpLeg
	{
		OFFSET -6.421140 0.000000 0.000000
		CHANNELS 6 Xposition Yposition Zposition Xrotation Zrotation Yrotation
		JOINT RightLeg
		{
			OFFSET 0.000000 -0.000015 33.420120
			CHANNELS 6 Xposition Yposition Zposition Xrotation Zrotation Yrotation
			JOINT RightFoot
			{
				OFFSET 0.000000 -0.000014 26.847282
				CHANNELS 6 Xposition Yposition Zposition Xrotation Zrotation Yrotation
				JOINT RightToeBase
				{
					OFFSET 0.000000 9.631709 4.173746
					CHANNELS 6 Xposition Yposition Zposition Xrotation Zrotation Yrotation
					End Site
					{
						OFFSET 0.000000 2.568455 0.000000
					}
				}
			}
		}
	}
}
MOTION
Frames: 6
Frame Time: 0.041667
-2.827026 -5.293910 -59.660568 69.341808 -79.753899 -65.864457 0.000000 0.000006 -5.265336 -8.399382 6.470754 -0.796135 0.000001 0.000007 -11.914372 0.691342 2.080279 13.296515 0.000007 0.000004 -13.198625 17.503268 27.673092 -14.032308 -0.000003 1.284241 -9.952761 15.880938 27.261918 42.797088 2.563102 -0.280098 -10.769156 0.683948 10.086723 16.027203 7.428636 -0.000001 -0.000009 16.014512 1.312001 -9.692247 19.264488 0.000008 0.000007 -26.356747 -0.303882 14.534798 17.229647 0.000007 -0.000001 -27.004719 1.953154 -38.759841 -2.568333 -0.280099 -10.769169 7.708190 6.504308 -5.743412 -7.428643 0.000001 0.000010 21.045923 -17.882844 29.876166 -19.264490 0.000009 -0.000007 17.390217 -61.632390 -33.990375 -17.229630 0.000003 -0.000000 -3.469065 -3.995990 5.483625 6.421141 0.000000 -0.000004 -16.335280 5.810626 7.346576 -0.000004 -0.000015 33.420116 30.875044 -11.658338 -10.644806 -0.000003 -0.000011 26.847282 -12.877973 -18.652294 -0.432311 -0.000006 9.631714 4.173741 -0.000003 0.000005 0.000002 -6.421139 0.000000 -0.000004 -21.056365 -7.236218 -8.604561 -0.000001 -0.000019 33.420113 37.243003 -2.104673 5.580825 0.000000 -0.000011 26.847296 -20.625288 2.019757 4.506921 0.000000 9.631712 4.173751 -0.000000 -0.000000 -0.000000 
-2.828366 -5.502330 -59.731468 68.117832 -79.668173 -64.682581 0.000000 0.000004 -5.265333 -8.458450 6.462455 -0.716872 0.000001 0.000007 -11.914385 0.624678 2.084737 13.053624 0.000003 -0.000000 -13.198610 17.631172 27.673787 -14.058899 -0.000007 1.284229 -9.952770 15.341510 27.438262 42.707715 2.563103 -0.280098 -10.769156 0.748190 10.129788 16.090903 7.428639 -0.000001 -0.000010 15.876672 1.231422 -9.704282 19.264515 -0.000007 -0.000023 -26.312322 -0.265267 14.510257 17.229641 0.000003 0.000004 -26.961811 1.937464 -38.869422 -2.568335 -0.280098 -10.769158 7.527271 6.484177 -5.979069 -7.428644 -0.000002 0.000014 20.950518 -17.399224 29.624036 -19.264492 0.000007 -0.000007 17.160353 -63.096420 -35.700268 -17.229654 -0.000001 -0.000009 -5.527434 -4.194475 8.630449 6.421139 -0.000001 0.000004 -15.870363 5.527244 7.104741 -0.000006 -0.000014 33.420109 29.815070 -11.853512 -10.408073 -0.000003 -0.000013 26.847288 -12.881238 -18.849688 -0.264959 -0.000001 9.631713 4.173746 -0.000001 -0.000001 0.000001 -6.421140 -0.000002 0.000006 -20.928570 -7.414243 -8.700496 0.000000 -0.000015 33.420113 36.866892 -1.970995 5.495403 0.000000 -0.000016 26.847298 -20.202057 1.846019 4.853523 0.000001 9.631712 4.173747 0.000002 -0.000000 -0.000000 
-2.835621 -5.715855 -59.799973 67.053190 -79.593478 -63.657336 -0.000001 0.000001 -5.265335 -8.483707 6.471552 -0.624876 0.000001 0.000007 -11.914392 0.518066 2.098905 12.780686 -0.000001 0.000005 -13.198591 17.754180 27.692876 -14.071227 -0.000000 1.284251 -9.952764 14.837464 27.620621 42.600375 2.563102 -0.280099 -10.769154 0.810717 10.174653 16.183158 7.428632 0.000001 -0.000006 16.066852 1.303178 -9.782690 19.264490 0.000000 -0.000005 -26.475838 -0.347641 14.657026 17.229637 0.000000 0.000019 -27.106198 1.910040 -38.948652 -2.568339 -0.280099 -10.769148 7.263021 6.355261 -6.263871 -7.428640 -0.000002 -0.000009 20.599680 -16.605646 29.493112 -19.264482 0.000005 -0.000011 17.005583 -64.750678 -36.959349 -17.229650 -0.000010 -0.000001 -7.320665 -3.987075 11.340826 6.421140 -0.000001 0.000006 -15.454778 5.226650 6.829475 -0.000003 -0.000015 33.420109 28.844729 -12.432745 -10.199697 -0.000008 -0.000011 26.847294 -12.890923 -18.721953 0.143220 -0.000001 9.631714 4.173746 -0.000001 0.000002 -0.000000 -6.421146 -0.000001 -0.000000 -20.807191 -7.575335 -8.776015 -0.000001 -0.000017 33.420116 36.513696 -1.735192 5.335704 -0.000000 -0.000017 26.847301 -19.782149 1.599142 5.257268 0.000001 9.631708 4.173751 -0.000000 -0.000000 -0.000000 
-2.846160 -5.933885 -59.872669 65.914932 -79.504952 -62.546214 0.000001 0.000000 -5.265323 -8.453544 6.467338 -0.550699 0.000001 0.000008 -11.914381 0.311488 2.119353 12.542337 -0.000004 0.000005 -13.198601 17.892463 27.705856 -14.135139 -0.000003 1.284234 -9.952783 14.353142 27.785725 42.497348 2.563102 -0.280099 -10.769139 0.938790 10.168416 16.246199 7.428634 -0.000003 0.000003 15.548238 1.173626 -9.724814 19.264490 0.000005 -0.000025 -26.234726 -0.244572 14.452037 17.229639 0.000003 -0.000019 -26.878673 1.913524 -38.877386 -2.568346 -0.280099 -10.769127 7.124344 6.312925 -6.605983 -7.428648 0.000001 -0.000006 20.034856 -15.906285 29.336342 -19.264492 0.000012 0.000004 16.875535 -66.368873 -38.123671 -17.229647 0.000006 -0.000004 -9.043316 -3.707103 13.771971 6.421145 -0.000001 0.000018 -15.066277 4.938934 6.559256 -0.000001 -0.000016 33.420097 28.007061 -13.060275 -10.055534 -0.000008 -0.000008 26.847286 -12.901964 -18.473080 0.589561 0.000005 9.631712 4.173747 0.000001 0.000000 -0.000001 -6.421140 -0.000001 0.000016 -20.668800 -7.849104 -8.865311 -0.000001 -0.000015 33.420120 36.131052 -1.540695 5.237965 -0.000001 -0.000020 26.847298 -19.350462 1.470982 5.609896 -0.000000 9.631713 4.173751 0.000000 -0.000000 -0.000000 
-2.860036 -6.158400 -59.940933 64.957059 -79.438044 -61.609194 -0.000000 0.000002 -5.265329 -8.458586 6.472005 -0.452507 0.000001 0.000008 -11.914386 0.183516 2.133049 12.217009 -0.000003 0.000005 -13.198651 18.052847 27.713079 -14.134586 0.000006 1.284238 -9.952756 13.839563 27.952751 42.450838 2.563098 -0.280098 -10.769172 1.011295 10.207693 16.355334 7.428625 0.000001 -0.000002 15.437732 1.161953 -9.708544 19.264492 -0.000009 -0.000003 -26.249672 -0.234333 14.404910 17.229645 0.000011 -0.000011 -26.882136 1.875538 -38.904631 -2.568345 -0.280098 -10.769158 6.829539 6.102042 -6.858189 -7.428645 0.000001 0.000011 19.909528 -15.252267 29.158617 -19.264492 0.000020 -0.000013 17.175481 -67.615779 -40.215604 -17.229645 0.000009 0.000012 -10.872468 -3.458964 16.273989 6.421141 0.000001 0.000004 -14.732424 4.678340 6.258986 -0.000005 -0.000014 33.420097 27.197890 -13.376607 -9.816086 -0.000001 -0.000007 26.847286 -12.834168 -18.413722 1.027207 0.000002 9.631709 4.173747 0.000001 -0.000002 -0.000000 -6.421140 0.000001 0.000003 -20.517569 -8.076490 -8.974594 -0.000001 -0.000013 33.420113 35.732493 -1.418954 5.131252 -0.000000 -0.000014 26.847294 -18.934037 1.410068 5.940065 0.000000 9.631708 4.173747 0.000001 -0.000000 0.000000 
-2.872021 -6.380080 -60.014755 64.181177 -79.396141 -60.875714 -0.000001 0.000000 -5.265333 -8.470828 6.499158 -0.350854 0.000002 0.000007 -11.914369 0.083624 2.150434 11.904997 -0.000005 -0.000001 -13.198639 18.208273 27.748499 -14.116708 -0.000003 1.284231 -9.952785 13.328315 28.147375 42.401032 2.563098 -0.280104 -10.769162 1.112710 10.248450 16.484475 7.428653 0.000002 0.000001 15.370781 1.201986 -9.711593 19.264492 -0.000003 -0.000009 -26.301452 -0.293382 14.397999 17.229637 0.000004 -0.000011 -26.927203 1.876443 -38.927290 -2.568341 -0.280104 -10.769169 6.488018 5.882027 -7.132465 -7.428645 0.000002 0.000011 19.988094 -14.810898 29.000816 -19.264482 0.000002 -0.000014 17.968373 -68.373998 -43.219494 -17.229631 -0.000001 0.000010 -12.702037 -3.278216 18.923051 6.421139 -0.000001 0.000004 -14.461764 4.385264 5.983085 -0.000010 -0.000013 33.420116 26.520556 -13.478157 -9.515890 -0.000009 -0.000014 26.847301 -12.723645 -18.422798 1.258337 -0.000000 9.631713 4.173746 -0.000003 0.000007 0.000000 -6.421146 -0.000001 0.000011 -20.360049 -8.278778 -9.053508 -0.000001 -0.000013 33.420120 35.357393 -1.213494 5.000195 0.000001 -0.000012 26.847294 -18.483276 1.280641 6.237023 0.000001 9.631708 4.173751 0.000003 -0.000000 -0.000000 
